<svg width="120" height="35" viewBox="0 0 120 35" fill="none" xmlns="http://www.w3.org/2000/svg">
<path d="M74.26 8.10376H77.3986V10.963H78.3776V8.10376H81.5078V7.2498H74.26V8.10376ZM91.8637 7.85197L91.8163 7.81911L90.408 7.97673V8.19464L90.6018 8.23441C90.8374 8.28098 90.8834 8.33447 90.8834 8.79782L90.8848 10.1986C90.8847 10.28 90.901 10.3606 90.9326 10.4358C90.9642 10.511 91.0107 10.5794 91.0692 10.6369C91.1277 10.6944 91.1972 10.7401 91.2737 10.7712C91.3502 10.8023 91.4322 10.8182 91.515 10.8181H96.2335V9.97382H91.8636L91.8637 7.85197ZM90.7117 4.96625C90.7117 4.28363 91.0658 3.64486 91.8467 3.64486C92.654 3.64486 92.9747 4.28363 92.9747 4.96625C92.9747 5.64887 92.6373 6.27936 91.8467 6.27936C91.0658 6.27936 90.7117 5.64887 90.7117 4.96625ZM93.9954 4.96625C93.9954 3.80668 93.1559 2.79918 91.8467 2.79918C90.5388 2.79918 89.6993 3.80668 89.6993 4.96625C89.6993 6.13545 90.5053 7.13332 91.8467 7.13332C93.1811 7.13332 93.9954 6.13545 93.9954 4.96625ZM98.8941 3.1567C97.4063 5.3717 97.4063 8.04041 98.8941 10.2554H99.5857C98.2554 7.94579 98.2485 5.48683 99.5857 3.1567H98.8941ZM102.977 4.11354C103.833 4.11354 104.406 4.43706 104.406 4.99073C104.406 5.57329 103.819 5.88309 102.977 5.88309C102.134 5.88309 101.554 5.5802 101.554 4.99764C101.554 4.43015 102.113 4.11354 102.977 4.11354ZM102.977 6.53693C104.432 6.53693 105.195 5.95437 105.195 4.99764C105.195 4.04091 104.432 3.45155 102.977 3.45155C101.554 3.45155 100.771 4.04918 100.771 4.99764C100.771 5.95437 101.554 6.53693 102.977 6.53693ZM100.027 7.77378H101.515V10.0326H102.291V7.77378H103.662V10.1108H104.439V7.77378H105.926V7.09116H100.027V7.77378ZM111.149 3.30095L111.111 3.27489L109.994 3.39965V3.57234L110.149 3.60384C110.33 3.63954 110.369 3.68339 110.372 4.02606V8.32042H111.148V6.19177H112.123V5.50779H111.148L111.149 3.30095ZM108.128 7.93503L108.09 7.90897L106.973 8.03373V8.20642L107.128 8.23793C107.314 8.27498 107.351 8.31747 107.351 8.68473V9.50027C107.351 9.63167 107.404 9.75773 107.499 9.85077C107.593 9.9438 107.721 9.99621 107.855 9.99648H111.359V9.31942H108.128V7.93503ZM107.184 6.2278C107.184 5.81794 107.462 5.53702 108.021 5.53702C108.568 5.53702 108.831 5.81805 108.831 6.2278C108.831 6.65954 108.568 6.946 108.021 6.946C107.462 6.946 107.184 6.64447 107.184 6.2278ZM109.608 6.2346C109.608 5.45056 109.022 4.89679 108.021 4.89679C107.039 4.89679 106.4 5.42858 106.4 6.2346C106.4 6.99666 107.034 7.6012 108.014 7.6012C109.022 7.6012 109.608 6.97479 109.608 6.2346ZM109.91 4.05564H108.396V3.29358L108.359 3.26752L107.242 3.39228V3.56498L107.395 3.59648C107.581 3.63217 107.618 3.67455 107.618 4.03377V4.05575H106.105V4.70267H109.91V4.05564ZM112.545 3.1567C113.882 5.48683 113.875 7.94591 112.545 10.2554H113.236C114.724 8.04041 114.724 5.3717 113.236 3.1567H112.545ZM85.0149 5.90134H83.1967V4.90347H85.0149V5.90134ZM85.9617 2.77346L85.9157 2.74196L84.5451 2.89414V3.10661L84.7347 3.14502C84.9634 3.19024 85.0094 3.24236 85.008 3.69325V4.07705H83.1967V2.77357H83.1953L83.1967 2.77221L83.1507 2.74071L81.8024 2.89154V3.10128L81.9878 3.13834C82.2123 3.18355 82.2584 3.23432 82.257 3.67841L82.2584 6.10859C82.2583 6.18997 82.2745 6.27057 82.3062 6.34577C82.3378 6.42097 82.3842 6.4893 82.4428 6.54685C82.5013 6.60439 82.5708 6.65002 82.6473 6.68112C82.7238 6.71222 82.8058 6.72818 82.8886 6.7281H85.9618V2.77346H85.9617ZM76.3303 3.68067H79.4467V5.44195H76.3303V3.68067ZM75.3751 3.66141V5.6585C75.375 5.73988 75.3913 5.82048 75.4229 5.89568C75.4545 5.97088 75.501 6.03921 75.5595 6.09675C75.618 6.1543 75.6875 6.19993 75.764 6.23103C75.8405 6.26213 75.9225 6.27809 76.0053 6.278H80.4018V2.84451H75.0544V3.06106L75.1855 3.10083C75.3431 3.14604 75.3751 3.19817 75.3751 3.66141ZM95.098 3.38707V8.5628H96.0698V2.44949L96.0225 2.41663L94.6267 2.57289V2.78944L94.8191 2.82921C95.052 2.87443 95.098 2.92655 95.098 3.38707ZM86.9299 2.57346V2.79L87.1223 2.82842C87.3551 2.87499 87.4025 2.92712 87.4011 3.38764V4.23887H86.2494V5.07367H87.4025V6.95291H88.373V2.45005L88.327 2.41719L86.9299 2.57346ZM69.8312 5.90134H68.013V4.90347H69.8312V5.90134ZM70.778 2.77346L70.732 2.7406L69.3628 2.89414V3.10525L69.5524 3.14502C69.7713 3.18752 69.8216 3.24508 69.8243 3.65212C69.8257 3.66855 69.8243 4.07705 69.8243 4.07705H68.013V2.77357L67.967 2.74207L66.6187 2.8929V3.10128L66.8041 3.1397C67.0301 3.18355 67.0747 3.25347 67.0747 3.69756V6.10859C67.0746 6.18997 67.0908 6.27057 67.1225 6.34577C67.1541 6.42097 67.2005 6.4893 67.2591 6.54685C67.3176 6.60439 67.3871 6.65002 67.4636 6.68112C67.5401 6.71222 67.6221 6.72818 67.7049 6.7281H70.7781V2.77346H70.778ZM71.7459 2.57346V2.79L71.9383 2.82842C72.1712 2.87499 72.2186 2.92712 72.2172 3.38764V4.23887H71.0655V5.07367H72.2186V6.95291H73.1891V2.45005L73.1431 2.41719L71.7459 2.57346ZM69.3157 10.081V9.27228H72.209L72.2104 10.081H69.3157ZM71.7378 7.4727V7.68925L71.9301 7.72766C72.163 7.77423 72.2104 7.82636 72.209 8.28688V8.43623H69.3157V7.3493L69.2683 7.31643L67.8712 7.4727V7.68925L68.065 7.72766C68.2979 7.77423 68.3438 7.82636 68.3438 8.28688V10.2894C68.3441 10.4536 68.4106 10.611 68.5287 10.7272C68.6469 10.8433 68.807 10.9086 68.974 10.9089H73.1809V7.3493L73.1349 7.31643L71.7378 7.4727ZM84.4998 10.081V9.27228H87.393L87.3944 10.081H84.4998ZM86.9218 7.4727V7.68925L87.1142 7.72766C87.347 7.77423 87.3944 7.82636 87.393 8.28688L87.3944 8.43623H84.4998V7.3493L84.4524 7.31643L83.0553 7.4727V7.68925L83.249 7.72766C83.4819 7.77423 83.5279 7.82636 83.5279 8.28688V10.2894C83.5282 10.4536 83.5947 10.611 83.7128 10.7272C83.8309 10.8433 83.991 10.9086 84.1581 10.9089H88.3649V7.3493L88.3189 7.31643L86.9218 7.4727ZM94.801 26.1329H96.8647L96.866 15.225L96.767 15.1565L93.7984 15.4881V15.9473L94.2083 16.0309C94.6991 16.1283 94.7995 16.2407 94.8009 17.1988V17.9554H92.6145V19.6948H94.8009V21.0888H92.6145V22.8282H94.8009V26.1329H94.801ZM83.2569 16.2746H92.4569V18.0509H83.2569V16.2746ZM91.3544 31.9022C89.0816 31.9022 87.8043 31.0811 87.8043 29.8585C87.8043 28.5975 89.0816 27.8135 91.3544 27.8135C93.5422 27.8135 94.8529 28.5784 94.8529 29.8585C94.8529 31.1003 93.5422 31.9022 91.3544 31.9022ZM91.3377 26.0754C87.3847 26.0754 85.6529 27.6997 85.6529 29.8394C85.6529 32.1133 87.3846 33.6224 91.3377 33.6224C95.2559 33.6224 97.0226 32.1325 97.0226 29.8394C97.0225 27.5846 95.2559 26.0754 91.3377 26.0754ZM114.268 19.3125V17.5361H111.996V15.2251L111.897 15.1566L108.929 15.4883V15.9474L109.339 16.031C109.834 16.1284 109.931 16.2394 109.931 17.2167L109.933 25.5601H111.996V23.038H114.268V21.2615H111.996V19.3124L114.268 19.3125ZM106.697 31.9031C104.474 31.9031 103.215 31.0423 103.215 29.8005C103.215 28.464 104.474 27.6224 106.697 27.6224C108.918 27.6224 110.177 28.464 110.177 29.8005C110.177 31.1191 108.918 31.9031 106.697 31.9031ZM106.679 25.8845C102.779 25.8845 101.064 27.5279 101.064 29.7813C101.064 32.0937 102.779 33.622 106.679 33.622C110.632 33.622 112.294 32.0745 112.294 29.7813C112.294 27.4895 110.632 25.8845 106.679 25.8845ZM101.03 20.2868C101.03 18.8914 101.816 17.5933 103.513 17.5933C105.122 17.5933 105.98 18.8914 105.98 20.2868C105.98 21.6999 105.14 22.9226 103.513 22.9226C101.799 22.9225 101.03 21.6629 101.03 20.2868ZM108.043 20.2868C108.043 17.9182 106.312 15.8156 103.513 15.8156C100.696 15.8156 98.9647 17.8991 98.9647 20.2868C98.9647 22.6553 100.645 24.7387 103.513 24.7387C106.451 24.7387 108.043 22.6553 108.043 20.2868Z" fill="#007899"/>
<path d="M93.3668 23.1716C92.5529 23.2702 91.7364 23.3465 90.9182 23.4005L91.0577 19.1021H88.9941L88.8546 23.5349C88.2062 23.5733 87.5425 23.5925 86.8425 23.6116L86.7198 19.1021H84.6562L84.8305 23.6678H82.8714V25.4457C86.8425 25.4457 90.4804 25.3497 93.3668 24.9097V23.1716ZM80.4814 15.1561L77.5491 15.4836V15.9374L77.9535 16.021C78.4429 16.117 78.5406 16.2266 78.5391 17.1916L78.5502 21.6051H76.9578V15.3206L76.9565 15.3219L76.9578 15.3192L76.8616 15.252L73.9487 15.5769V16.0279L74.3503 16.1102C74.8355 16.2062 74.9332 16.324 74.9318 17.2835L74.9471 26.8782H69.1396V23.2678H73.2502V21.5093H69.1396V18.2621H73.4244V16.4856H66.3927V16.9448L66.6702 17.0284C67.0076 17.1257 67.0746 17.2368 67.0746 18.2196L67.076 27.4141C67.076 28.1419 67.6755 28.7313 68.4145 28.7313H74.9471V32.7241H76.9578V23.4583H78.5502V33.3163H80.5791V15.2246L80.4814 15.1561ZM12.292 31.8785C10.6759 31.8772 9.0613 30.7313 9.0613 29.1057L9.06683 19.8727C9.06683 18.6542 10.2702 18.0265 11.4345 18.0278C14.8911 18.0292 16.2799 22.0837 16.2785 25.3706C16.2771 27.8816 15.598 31.8799 12.292 31.8785ZM14.6303 14.6312C12.4132 14.6298 10.5337 15.9223 9.10591 17.3986H9.06822L9.07663 1.5576L8.8145 1.37256L8.81312 1.37392V1.37256L0.923747 2.25529L0.922363 2.9242L2.01274 3.1463C3.32768 3.40535 3.58981 3.70144 3.58843 6.32359L3.57586 29.1193C3.57448 31.74 3.31234 31.9265 1.99603 32.2952L1.02415 32.5392V33.2067H7.20262C8.38499 33.4205 9.69715 33.5754 11.0511 33.5768C17.6631 33.5795 21.6482 29.5922 21.6524 23.1295C21.6537 18.8817 19.2889 14.634 14.6303 14.6312ZM31.5689 29.1186L31.5843 1.55828L31.3208 1.37324L23.4301 2.25597V2.92352L24.5191 3.14562C25.8341 3.40467 26.0976 3.70076 26.0962 6.32291L26.0836 29.1187C26.0822 31.7408 25.8187 31.9272 24.5038 32.296L23.5319 32.5386V33.2075H34.1165V32.5386L33.1446 32.296C31.8297 31.9258 31.5676 31.7407 31.5689 29.1186Z" fill="#007899"/>
<path d="M44.5892 32.2671C43.4528 31.9312 42.9103 31.0047 41.1577 28.4552L36.2802 21.3318C36.2802 21.3318 37.5198 20.2078 38.7078 19.1263C40.5134 17.4856 41.9441 16.5577 43.2744 16.1752L44.5265 15.8298V15.1609L35.4492 15.1555V15.8244L36.6999 16.1711C38.072 16.5796 38.2965 17.3938 35.9456 19.5485L31.7778 23.348L38.1794 33.1977H38.995L45.5262 33.2018V32.5329L44.5892 32.2671ZM55.6521 32.2959C54.3371 31.9258 54.075 31.7407 54.0765 29.1186L54.0903 1.55828L53.8268 1.37323L45.9375 2.25597L45.9362 2.92351L47.0265 3.14561C48.3414 3.40602 48.6036 3.70075 48.6021 6.2982L48.5895 31.0088C48.5882 32.2315 49.5754 33.2074 50.7941 33.2074H56.6239V32.5385L55.6521 32.2959Z" fill="#007899"/>
</svg>
